<?xml version="1.0" encoding="utf-8"?>
<!-- Generator: Adobe Illustrator 19.0.0, SVG Export Plug-In . SVG Version: 6.00 Build 0)  -->
<svg version="1.1" id="Capa_1" xmlns="http://www.w3.org/2000/svg" xmlns:xlink="http://www.w3.org/1999/xlink" x="0px" y="0px"
	 viewBox="-38 40 18 18" style="enable-background:new -38 40 18 18;" xml:space="preserve">
<style type="text/css">
	.st0{fill:none;}
	.st1{fill:#2C3E50;}
</style>
<path class="st0" d="M-76.2,79.7h18v18h-18V79.7z"/>
<path class="st1" d="M-22.9,45.5L-22.9,45.5l-2.8-2.8l-0.8,0.8l1.6,1.6c-0.7,0.3-1.2,0.9-1.2,1.7c0,1,0.8,1.9,1.9,1.9
	c0.3,0,0.5-0.1,0.8-0.2v5.4c0,0.4-0.3,0.8-0.8,0.8s-0.8-0.3-0.8-0.8v-3.4c0-0.8-0.7-1.5-1.5-1.5h-0.8v-5.3c0-0.8-0.7-1.5-1.5-1.5
	h-4.5c-0.8,0-1.5,0.7-1.5,1.5v12h7.5v-5.6h1.1v3.8c0,1,0.8,1.9,1.9,1.9s1.9-0.8,1.9-1.9v-7.1C-22.3,46.3-22.5,45.8-22.9,45.5z
	 M-28.7,47.6h-4.5v-3.8h4.5V47.6z M-24.2,47.6c-0.4,0-0.8-0.3-0.8-0.8s0.3-0.8,0.8-0.8s0.8,0.3,0.8,0.8S-23.8,47.6-24.2,47.6z"/>
</svg>
